PathFileType	4	(X/Y/Z)	T:\Spectrum_Optical_Capture\Spectrum_Demo_10_05_01_TRUECOMBAT\07_Smooth_Trc\TC_Stairs_1.trc
DataRate	CameraRate	NumFrames	NumMarkers	Units	OrigDataRate	OrigDataStartFrame	OrigNumFrames
60.0	60.0	       5	46	mm	60.0	627	       716
Frame#	Time	HeadTop			ForeHead			LFrontHead			RFrontHead			TopSpine			Sternum			Scapula			LFShoulder			LShoulder			LBicep			LOuterElbow			LHand			LWristPinky			LWristThumb			RFShoulder			RShoulder			RBicep			ROuterElbow			RHand			RWristPinky			RWristThumb			MiddleBack			LowerBack			Root			Pelvis			LBackWaist			RBackWaist			LFrontWaist			RFrontWaist			Bellymarker			LThigh			LOuterKnee			LAnkle			LHeel			LOuterMeta			LToe			RThigh			ROuterKnee			RAnkle			RHeel			ROuterMeta			RToe			Floor1			Floor2			Floor3			Floor4			
		X1	Y1	Z1	X2	Y2	Z2	X3	Y3	Z3	X4	Y4	Z4	X5	Y5	Z5	X6	Y6	Z6	X7	Y7	Z7	X8	Y8	Z8	X9	Y9	Z9	X10	Y10	Z10	X11	Y11	Z11	X12	Y12	Z12	X13	Y13	Z13	X14	Y14	Z14	X15	Y15	Z15	X16	Y16	Z16	X17	Y17	Z17	X18	Y18	Z18	X19	Y19	Z19	X20	Y20	Z20	X21	Y21	Z21	X22	Y22	Z22	X23	Y23	Z23	X24	Y24	Z24	X25	Y25	Z25	X26	Y26	Z26	X27	Y27	Z27	X28	Y28	Z28	X29	Y29	Z29	X30	Y30	Z30	X31	Y31	Z31	X32	Y32	Z32	X33	Y33	Z33	X34	Y34	Z34	X35	Y35	Z35	X36	Y36	Z36	X37	Y37	Z37	X38	Y38	Z38	X39	Y39	Z39	X40	Y40	Z40	X41	Y41	Z41	X42	Y42	Z42	X43	Y43	Z43	X44	Y44	Z44	X45	Y45	Z45	X46	Y46	Z46	

627	10.433	346.11060	1667.31750	-2717.94824	359.15439	1544.63025	-2833.60815	260.21167	1538.35034	-2764.57813	444.81274	1546.33508	-2759.77563	347.60580	1354.94238	-2556.70288	351.33359	1150.62842	-2809.16187	468.07178	1218.02625	-2521.13037	272.53622	1276.52771	-2768.93823	144.84459	1349.15234	-2656.62646	66.69089	1136.16699	-2646.98877	84.93833	1049.62878	-2550.22925	12.10122	837.55389	-2646.71387	-2.24331	756.74921	-2640.35229	22.25034	716.24713	-2730.02173	428.55057	1272.46716	-2763.06250	546.84351	1346.54712	-2653.13501	621.54956	1177.08643	-2612.07007	642.32941	1015.88495	-2619.19019	662.33881	976.00024	-2864.59814	651.52295	913.98999	-2931.64209	655.47906	987.01587	-2998.61914	344.92630	1265.22595	-2530.82544	346.18799	1133.72290	-2535.08081	348.24808	1016.03650	-2546.23120	203.16382	1048.14124	-2578.40771	208.29851	926.66101	-2567.37085	491.45825	922.78931	-2583.53027	180.85155	942.20831	-2710.09521	512.37878	944.29938	-2728.57959	343.37555	965.77173	-2818.36768	153.79587	671.22662	-2688.82910	167.89941	515.65808	-2746.55200	205.73505	123.24571	-2715.85913	291.60919	61.37474	-2649.39429	191.95897	39.22382	-2768.81299	224.37317	40.17704	-2894.38452	533.53711	695.50189	-2789.28662	521.82623	530.54724	-2771.47559	513.29932	178.64713	-2638.81445	442.52234	113.40945	-2542.32471	533.49561	62.65584	-2663.44971	481.92267	48.88602	-2776.50464	4200.69678	32.91673	-4241.15967	-3735.36841	-12.54683	-4194.43115	-3781.48413	-15.53368	4946.00830	4162.83936	21.52901	4908.65088	
628	10.450	343.83682	1669.77283	-2723.52368	356.87341	1547.39197	-2839.53320	258.07321	1540.70508	-2770.39771	442.63101	1549.03235	-2765.87402	347.25909	1357.15161	-2563.40454	349.29019	1153.25452	-2815.62402	468.75122	1221.09045	-2528.93652	270.77994	1279.01282	-2774.67432	143.80107	1351.31042	-2661.60938	67.03832	1137.64844	-2653.26660	87.21849	1050.19055	-2557.64795	12.28138	839.36578	-2654.48413	-1.55580	759.68756	-2647.60376	17.48262	718.53845	-2738.44580	426.69019	1275.25269	-2770.37964	546.18671	1349.14929	-2661.86670	619.79346	1178.65002	-2620.15820	636.25562	1017.41577	-2625.19067	659.92645	961.08051	-2866.29150	648.78259	894.80243	-2928.13550	656.65405	961.49542	-3000.81104	345.19580	1267.77515	-2537.39404	346.88498	1136.55383	-2541.37231	349.61273	1018.93365	-2552.92847	203.28075	1050.42896	-2583.27246	209.86705	929.26227	-2572.17358	492.34314	927.06403	-2592.35596	180.59370	943.93292	-2714.15747	511.23621	947.83136	-2737.66797	341.16483	968.34680	-2824.79004	154.83411	672.64575	-2690.50610	168.46706	516.40424	-2746.96704	205.40306	123.40488	-2715.32910	291.38730	61.56416	-2649.15112	191.72452	38.99940	-2768.50781	224.48006	40.72146	-2893.95044	531.30463	698.52826	-2799.87280	520.28400	533.55103	-2781.98291	518.29083	179.85165	-2652.92529	451.91080	112.67787	-2554.06274	537.96362	64.60249	-2680.18677	481.49908	52.83168	-2791.10767	4200.67480	32.95026	-4241.19531	-3735.35596	-12.53844	-4194.43018	-3781.44824	-15.48449	4945.93066	4162.81885	21.52896	4908.63477	
629	10.467	341.68326	1672.66394	-2729.33154	354.81030	1550.51648	-2845.55322	256.28909	1543.29858	-2776.18823	440.74268	1552.26257	-2772.08838	347.34503	1360.03369	-2569.93066	347.37753	1156.43298	-2821.74902	469.92142	1224.66418	-2536.76978	269.27225	1282.06604	-2780.24023	143.36401	1354.15283	-2666.17383	67.29670	1140.35559	-2658.45947	89.12811	1052.07446	-2563.88525	13.28405	842.14648	-2662.40210	0.23950	763.50220	-2655.73169	14.72564	722.67700	-2747.81494	425.06638	1278.65747	-2777.65942	545.79486	1352.44824	-2670.55737	618.66980	1181.17297	-2628.10767	630.90369	1019.88110	-2631.13770	657.00049	945.69379	-2866.69067	645.10840	875.18695	-2922.65845	656.66638	934.43640	-3000.98364	345.89035	1270.94739	-2543.76489	347.65411	1139.98987	-2547.48608	351.00458	1022.49164	-2559.52222	203.80318	1053.30566	-2588.26123	211.77249	932.36969	-2576.61450	493.48608	932.46777	-2600.76685	180.56194	945.98468	-2717.93091	510.17944	952.04822	-2746.28003	339.09793	971.33221	-2830.82422	156.74483	674.30975	-2691.35010	169.98404	517.29175	-2746.43701	205.24519	123.50564	-2714.72266	291.37692	61.53202	-2649.16919	191.55373	38.79652	-2768.25122	224.73239	41.34680	-2893.68335	528.99866	701.97266	-2809.63770	518.65015	536.99548	-2791.29541	524.16266	179.64882	-2669.30957	462.90918	109.30661	-2568.87329	542.46759	65.33150	-2700.95630	480.30789	57.09703	-2808.91724	4200.69824	33.01077	-4241.22559	-3735.34155	-12.52637	-4194.42822	-3781.43262	-15.42920	4945.91113	4162.78516	21.52135	4908.60547	
630	10.483	339.70212	1675.67407	-2735.30127	352.98230	1553.75195	-2851.70117	254.83377	1545.97803	-2781.90112	439.14294	1555.70581	-2778.42480	347.88403	1363.23792	-2576.51709	345.45901	1159.57959	-2827.68262	471.36548	1228.41565	-2544.68164	267.91641	1285.23938	-2785.77710	143.41858	1357.29395	-2670.46680	67.34140	1143.85120	-2662.55396	90.39027	1054.91333	-2568.86987	14.96994	845.56030	-2670.44312	2.81592	767.65247	-2664.66504	14.30398	728.35431	-2758.09131	423.61343	1282.11694	-2785.07837	545.63184	1355.89832	-2679.57593	618.17920	1184.20313	-2636.33667	626.74982	1022.89148	-2637.35474	653.75183	930.66968	-2866.33203	640.79022	856.06555	-2915.80640	655.16278	907.07806	-2999.34668	346.98187	1274.42200	-2550.08374	348.59201	1143.67432	-2553.59131	352.70355	1026.36646	-2565.88428	204.95776	1056.44250	-2593.27686	214.11624	935.67584	-2580.57275	495.05719	938.33105	-2608.78052	180.51266	947.93579	-2721.19678	509.28207	956.37347	-2754.56494	337.07578	974.17639	-2836.50293	159.29660	675.92554	-2691.51196	172.20940	518.26892	-2745.38281	205.19109	123.58631	-2714.06372	291.40378	61.28979	-2649.25415	191.45587	38.61242	-2768.00342	225.12907	42.00170	-2893.47266	526.58917	705.39771	-2818.65186	517.08765	540.49323	-2799.70850	530.70703	178.26376	-2687.94116	475.42603	103.84488	-2586.82739	546.43024	64.89680	-2725.33154	477.74005	61.37664	-2829.09180	4200.74756	33.07156	-4241.24316	-3735.33032	-12.51667	-4194.42822	-3781.43555	-15.36011	4945.96387	4162.75098	21.49861	4908.58154	
631	10.500	337.95297	1678.47437	-2741.30908	351.36511	1556.85229	-2857.99658	253.60701	1548.57251	-2787.54346	437.79999	1559.05835	-2784.95044	348.92108	1366.44958	-2583.38086	343.45663	1162.16162	-2833.54102	473.05991	1232.13489	-2552.74609	266.59271	1288.10730	-2791.31445	143.85832	1360.38269	-2674.58350	67.19127	1147.66235	-2665.63330	90.96138	1058.31396	-2572.59253	17.19588	849.33649	-2678.53955	5.88527	771.66864	-2674.26440	16.32715	735.20490	-2769.10474	422.20847	1285.11560	-2792.78320	545.63867	1359.02429	-2689.29370	618.28021	1187.27783	-2645.34033	624.14276	1026.09131	-2644.19531	650.42627	916.68341	-2865.86475	636.35400	838.17596	-2908.21924	652.04950	880.62030	-2996.45337	348.48947	1277.89392	-2556.54980	349.90765	1147.32617	-2559.68237	354.92825	1030.33252	-2571.86646	206.88518	1059.56433	-2598.04004	216.97823	938.93842	-2583.92969	497.16022	944.03925	-2616.44385	180.40765	949.48431	-2723.78052	508.64578	960.30902	-2762.57959	335.14563	976.45294	-2841.77441	162.17593	677.27313	-2691.18823	174.77441	519.25317	-2744.25098	205.11745	123.69260	-2713.40259	291.26343	60.89557	-2649.25610	191.38310	38.44591	-2767.77783	225.62793	42.63566	-2893.23950	524.06311	708.44055	-2827.10547	515.75336	543.67407	-2807.56738	537.55609	176.01337	-2708.69336	489.36157	97.02538	-2607.81250	549.19794	63.50704	-2752.59351	473.11298	65.42432	-2850.44336	4200.79736	33.10244	-4241.24072	-3735.32593	-12.51369	-4194.43115	-3781.44727	-15.27903	4946.06152	4162.72705	21.46422	4908.56055	
